<svg id="visual" viewBox="0 0 960 540" width="960" height="540" xmlns="http://www.w3.org/2000/svg" xmlns:xlink="http://www.w3.org/1999/xlink" version="1.1"><rect x="0" y="0" width="960" height="540" fill="#000000"></rect><path d="M0 239L32 245.5C64 252 128 265 192 262.3C256 259.7 320 241.3 384 217.3C448 193.3 512 163.7 576 180.5C640 197.3 704 260.7 768 276.3C832 292 896 260 928 244L960 228L960 0L928 0C896 0 832 0 768 0C704 0 640 0 576 0C512 0 448 0 384 0C320 0 256 0 192 0C128 0 64 0 32 0L0 0Z" fill="#00008B" stroke-linecap="round" stroke-linejoin="miter"></path></svg>