<svg id="visual" viewBox="0 0 960 540" width="960" height="540" xmlns="http://www.w3.org/2000/svg" xmlns:xlink="http://www.w3.org/1999/xlink" version="1.1"><rect x="0" y="0" width="960" height="540" fill="#00008B"></rect><path d="M0 97L12.3 97C24.7 97 49.3 97 74 100.2C98.7 103.3 123.3 109.7 148 121.3C172.7 133 197.3 150 221.8 158.5C246.3 167 270.7 167 295.2 159.3C319.7 151.7 344.3 136.3 369 128.3C393.7 120.3 418.3 119.7 443 125.7C467.7 131.7 492.3 144.3 517 150.8C541.7 157.3 566.3 157.7 591 153.8C615.7 150 640.3 142 664.8 143.7C689.3 145.3 713.7 156.7 738.2 160.5C762.7 164.3 787.3 160.7 812 149C836.7 137.3 861.3 117.7 886 111C910.7 104.3 935.3 110.7 947.7 113.8L960 117L960 0L947.7 0C935.3 0 910.7 0 886 0C861.3 0 836.7 0 812 0C787.3 0 762.7 0 738.2 0C713.7 0 689.3 0 664.8 0C640.3 0 615.7 0 591 0C566.3 0 541.7 0 517 0C492.3 0 467.7 0 443 0C418.3 0 393.7 0 369 0C344.3 0 319.7 0 295.2 0C270.7 0 246.3 0 221.8 0C197.3 0 172.7 0 148 0C123.3 0 98.7 0 74 0C49.3 0 24.7 0 12.3 0L0 0Z" fill="#FFFFFF" stroke-linecap="round" stroke-linejoin="miter"></path></svg>