<svg id="visual" viewBox="0 0 960 540" width="960" height="540" xmlns="http://www.w3.org/2000/svg" xmlns:xlink="http://www.w3.org/1999/xlink" version="1.1"><rect x="0" y="0" width="960" height="540" fill="#FFFFFF"></rect><path d="M0 132L22.8 137.2C45.7 142.3 91.3 152.7 137 158C182.7 163.3 228.3 163.7 274 156C319.7 148.3 365.3 132.7 411.2 123.8C457 115 503 113 548.8 121.2C594.7 129.3 640.3 147.7 686 144.8C731.7 142 777.3 118 823 119.3C868.7 120.7 914.3 147.3 937.2 160.7L960 174L960 0L937.2 0C914.3 0 868.7 0 823 0C777.3 0 731.7 0 686 0C640.3 0 594.7 0 548.8 0C503 0 457 0 411.2 0C365.3 0 319.7 0 274 0C228.3 0 182.7 0 137 0C91.3 0 45.7 0 22.8 0L0 0Z" fill="#000000" stroke-linecap="round" stroke-linejoin="miter"></path></svg>